<svg xmlns="http://www.w3.org/2000/svg" version="1.1" xmlns:xlink="http://www.w3.org/1999/xlink" xmlns:svgjs="http://svgjs.com/svgjs" width="1440" height="560" preserveAspectRatio="none" viewBox="0 0 1440 560"><g mask="url(&quot;#SvgjsMask1000&quot;)" fill="none"><rect width="1440" height="560" x="0" y="0" fill="#1e3266"></rect><path d="M1560 560L0 560 L0 370.7Q62.68 313.38, 120 376.07Q142.03 278.1, 240 300.13Q305.44 245.57, 360 311.02Q407.12 286.13, 432 333.25Q445.18 274.43, 504 287.6Q548.12 259.72, 576 303.84Q655.93 263.77, 696 343.7Q739.46 315.16, 768 358.63Q807.77 278.4, 888 318.17Q915.91 274.08, 960 301.98Q1015.03 285.01, 1032 340.04Q1056.97 293.01, 1104 317.99Q1169.1 263.09, 1224 328.19Q1282.25 314.44, 1296 372.69Q1326.63 331.31, 1368 361.94Q1375.49 297.43, 1440 304.92Q1506.05 250.97, 1560 317.02z" fill="#182f5d"></path><path d="M1512 560L0 560 L0 437.99Q57.95 375.94, 120 433.89Q141.72 383.61, 192 405.33Q259.54 352.87, 312 420.41Q338.27 326.68, 432 352.95Q478.68 327.63, 504 374.3Q571.05 321.35, 624 388.39Q647.82 340.2, 696 364.02Q725.26 321.28, 768 350.55Q876.4 338.96, 888 447.36Q915.57 402.93, 960 430.49Q988.89 339.38, 1080 368.28Q1133.92 302.2, 1200 356.12Q1274.53 310.65, 1320 385.19Q1370.65 363.85, 1392 414.5Q1431.45 333.95, 1512 373.4z" fill="#25467d"></path><path d="M1488 560L0 560 L0 447.77Q68.24 444.01, 72 512.25Q86.66 406.91, 192 421.57Q234.16 391.73, 264 433.89Q364.39 414.28, 384 514.68Q419.47 430.14, 504 465.61Q522.5 412.11, 576 430.61Q624.48 407.09, 648 455.56Q732.85 420.41, 768 505.26Q815 432.26, 888 479.27Q907.8 427.06, 960 446.86Q1005.92 420.78, 1032 466.71Q1048.17 410.88, 1104 427.06Q1174.03 377.09, 1224 447.11Q1295.7 398.81, 1344 470.51Q1385.61 440.12, 1416 481.72Q1423.68 417.4, 1488 425.09z" fill="#356cb1"></path><path d="M1512 560L0 560 L0 497.84Q98.65 476.49, 120 575.13Q172.15 507.28, 240 559.43Q288.01 487.44, 360 535.46Q404.41 459.87, 480 504.28Q545.75 450.03, 600 515.79Q624.66 468.44, 672 493.1Q761.12 462.22, 792 551.34Q805.17 492.51, 864 505.69Q909.55 479.24, 936 524.79Q1021.43 490.22, 1056 575.65Q1081.47 529.12, 1128 554.59Q1161.11 467.7, 1248 500.8Q1321.4 454.21, 1368 527.61Q1409.09 496.7, 1440 537.79Q1464.04 489.83, 1512 513.86z" fill="white"></path></g><defs><mask id="SvgjsMask1000"><rect width="1440" height="560" fill="#ffffff"></rect></mask></defs></svg>